<?xml version="1.0" encoding="UTF-8" standalone="no"?>
<!-- Created with Inkscape (http://www.inkscape.org/) -->

<svg
   version="1.1"
   id="svg1"
   width="335"
   height="356"
   viewBox="0 0 335 356"
   sodipodi:docname="rocket.svg"
   inkscape:export-filename="rocketlogo.png"
   inkscape:export-xdpi="96"
   inkscape:export-ydpi="96"
   inkscape:version="1.4 (e7c3feb100, 2024-10-09)"
   xmlns:inkscape="http://www.inkscape.org/namespaces/inkscape"
   xmlns:sodipodi="http://sodipodi.sourceforge.net/DTD/sodipodi-0.dtd"
   xmlns="http://www.w3.org/2000/svg"
   xmlns:svg="http://www.w3.org/2000/svg">
  <defs
     id="defs1" />
  <sodipodi:namedview
     id="namedview1"
     pagecolor="#ffffff"
     bordercolor="#000000"
     borderopacity="0.25"
     inkscape:showpageshadow="2"
     inkscape:pageopacity="0.0"
     inkscape:pagecheckerboard="0"
     inkscape:deskcolor="#d1d1d1"
     showguides="false"
     inkscape:zoom="2.5140449"
     inkscape:cx="137.8257"
     inkscape:cy="176.8067"
     inkscape:window-width="1920"
     inkscape:window-height="1140"
     inkscape:window-x="0"
     inkscape:window-y="28"
     inkscape:window-maximized="1"
     inkscape:current-layer="g1">
    <inkscape:page
       x="0"
       y="0"
       width="335"
       height="356"
       id="page2"
       margin="0"
       bleed="0" />
  </sodipodi:namedview>
  <g
     inkscape:groupmode="layer"
     inkscape:label="Image"
     id="g1">
    <rect
       style="fill:#ffffff;fill-opacity:1;stroke:#ffffff;stroke-width:0;stroke-linecap:round;stroke-linejoin:round;stroke-dasharray:none;stroke-dashoffset:311.437;stroke-opacity:1;paint-order:stroke fill markers"
       id="rect12"
       width="19.266487"
       height="7.7347212"
       x="-43.842781"
       y="169.82065"
       rx="15.910615"
       ry="7.7347212"
       transform="rotate(-90)" />
    <path
       id="rect9"
       style="fill:#ffffff;fill-opacity:1;stroke:#ffffff;stroke-width:0;stroke-linecap:round;stroke-linejoin:round;stroke-dashoffset:311.437;stroke-opacity:1;paint-order:stroke fill markers"
       d="m 159.13269,103.75105 -9.56293,-8.035624 c -7.11506,-5.978687 15.83508,-62.560619 23.62605,-62.560619 7.79098,0 27.81941,41.370122 23.62606,50.279172 l -9.56293,20.317071 c -0.49586,1.05348 -6.83468,-3.09322 -14.62566,-3.09322 -7.79097,0 -7.63229,8.02429 -13.50059,3.09322 z"
       sodipodi:nodetypes="sssssss" />
    <path
       id="rect7"
       style="fill:#ffffff;fill-opacity:1;stroke:#ffffff;stroke-width:0;stroke-linecap:round;stroke-linejoin:round;stroke-dashoffset:311.437;stroke-opacity:1;paint-order:stroke fill markers"
       d="m 146.78296,80.476379 c -1.84946,-0.30403 -3.05114,6.04573 -3.24415,6.59766 l -15.24804,43.603511 c -2.90957,8.32042 4.84815,59.26758 18.28125,59.26758 h 0.43164 c 9.56502,0 22.15973,-6.66569 28.60937,-13.68554 6.44965,7.01986 19.04631,13.68554 28.61133,13.68554 h 0.42969 c 13.4331,0 21.55596,-51.08398 18.28125,-59.26758 L 204.41772,84.402159 c -0.46947,-1.17321 -10.31055,0.82032 -10.31055,0.82032 l -15.10546,2.16601 c -0.36563,0.0524 -0.56804,0.0797 -0.9043,0.12695 -1.31017,-1.66656 -4.21607,-2.58451 -10.65234,-3.64257 z m 26.67187,27.529301 c 10.654,0.009 19.28369,8.65264 19.27539,19.30664 -0.009,10.65323 -8.65145,19.28261 -19.30469,19.27539 l 0.0117,-19.29102 -0.0234,19.29102 c -10.65247,-0.0133 -19.27803,-8.65808 -19.26757,-19.31055 0.0111,-10.65323 8.65536,-19.28086 19.30859,-19.27148 z"
       sodipodi:nodetypes="cccsscsscccccccccccccc" />
    <rect
       style="fill:#ffffff;fill-opacity:1;stroke:#ffffff;stroke-width:0;stroke-linecap:round;stroke-linejoin:round;stroke-dashoffset:311.437;stroke-opacity:1;paint-order:stroke fill markers"
       id="rect3"
       width="32.626694"
       height="108.98363"
       x="-199.26357"
       y="-162.36369"
       rx="16.313347"
       ry="27.56662"
       transform="matrix(-0.87872485,-0.47732864,0.40057799,-0.91626267,0,0)" />
    <rect
       style="fill:#ffffff;fill-opacity:1;stroke:#ffffff;stroke-width:0;stroke-linecap:round;stroke-linejoin:round;stroke-dashoffset:311.437;stroke-opacity:1;paint-order:stroke fill markers"
       id="rect5"
       width="32.626694"
       height="108.98363"
       x="122.54939"
       y="-330.0127"
       rx="16.313347"
       ry="27.56662"
       transform="matrix(0.87872485,-0.47732864,-0.40057799,-0.91626267,0,0)" />
    <rect
       style="fill:#ffffff;fill-opacity:1;stroke:#ffffff;stroke-width:0;stroke-linecap:round;stroke-linejoin:round;stroke-dashoffset:311.437;stroke-opacity:1;paint-order:stroke fill markers"
       id="rect6"
       width="16.134338"
       height="50.868465"
       x="197.703"
       y="-207.67303"
       rx="8.0671692"
       ry="12.86681"
       transform="matrix(0.99897946,-0.04516673,-0.03372367,-0.9994312,0,0)" />
    <rect
       style="fill:#ffffff;fill-opacity:1;stroke:#ffffff;stroke-width:0;stroke-linecap:round;stroke-linejoin:round;stroke-dashoffset:311.437;stroke-opacity:1;paint-order:stroke fill markers"
       id="rect4"
       width="16.134338"
       height="50.868465"
       x="-152.06242"
       y="-191.86632"
       rx="8.0671692"
       ry="12.86681"
       transform="matrix(-0.99897946,-0.04516673,0.03372367,-0.9994312,0,0)" />
    <rect
       style="fill:#ffffff;fill-opacity:1;stroke:#ffffff;stroke-width:0;stroke-linecap:round;stroke-linejoin:round;stroke-dashoffset:311.437;stroke-opacity:1;paint-order:stroke fill markers"
       id="rect1"
       width="24.147587"
       height="72.858154"
       x="-248.64742"
       y="-94.50898"
       rx="12.073793"
       ry="18.428944"
       transform="matrix(-0.66605276,-0.74590463,0.75408983,-0.65677129,0,0)" />
    <rect
       style="fill:#ffffff;fill-opacity:1;stroke:#ffffff;stroke-width:0;stroke-linecap:round;stroke-linejoin:round;stroke-dashoffset:311.437;stroke-opacity:1;paint-order:stroke fill markers"
       id="rect2"
       width="24.147587"
       height="72.858154"
       x="-4.9031878"
       y="282.18713"
       rx="12.073793"
       ry="18.428944"
       transform="matrix(-0.66605276,0.74590463,0.75408983,0.65677129,0,0)" />
    <path
       style="fill:#ffffff;fill-opacity:1;stroke:#ffffff;stroke-width:18.8;stroke-linecap:round;stroke-linejoin:round;stroke-dasharray:none;stroke-dashoffset:311.437;stroke-opacity:1;paint-order:stroke fill markers"
       d="m 145.2283,187.12311 c 26.1105,-10.87872 57.89795,-2.31447 57.89795,-2.31447"
       id="path6"
       sodipodi:nodetypes="cc" />
    <a
       id="a8"
       transform="rotate(-90,156.33394,160.89608)"
       style="fill:#ffffff;fill-opacity:1;stroke:#ffffff;stroke-opacity:1">
      <path
         id="rect8"
         style="fill:#ffffff;fill-opacity:1;stroke:#ffffff;stroke-width:0;stroke-linecap:round;stroke-linejoin:round;stroke-dashoffset:311.437;stroke-opacity:1;paint-order:stroke fill markers"
         d="m 231.58929,147.93792 10.93068,6.46904 c 7.58558,4.48933 19.62228,14.26024 19.63345,20.42982 l 0.004,2.15294 c 0.0196,10.83561 -20.32505,28.76938 -28.63775,31.70092 l -10.36816,3.65642 c -11.71151,4.13016 6.66135,-19.92672 6.92138,-33.3573 l 0.0703,-3.63127 c 0.26003,-13.43056 -25.19271,-35.03173 -8.398,-30.2332 z"
         sodipodi:nodetypes="ssssssssss" />
    </a>
    <rect
       style="fill:#ffffff;fill-opacity:1;stroke:#ffffff;stroke-width:0;stroke-linecap:round;stroke-linejoin:round;stroke-dasharray:none;stroke-dashoffset:311.437;stroke-opacity:1;paint-order:stroke fill markers"
       id="rect10"
       width="28.126261"
       height="92.254128"
       x="-218.78813"
       y="128.19379"
       rx="11.698981"
       ry="24.247463"
       transform="rotate(-90)" />
    <rect
       style="fill:#ffffff;fill-opacity:1;stroke:#ffffff;stroke-width:0;stroke-linecap:round;stroke-linejoin:round;stroke-dasharray:none;stroke-dashoffset:311.437;stroke-opacity:1;paint-order:stroke fill markers"
       id="rect11"
       width="8.4378786"
       height="70.878174"
       x="-219.91319"
       y="139.44429"
       rx="3.5096951"
       ry="18.629148"
       transform="rotate(-90)" />
    <rect
       style="fill:#f83b08;fill-opacity:1;stroke:#d46907;stroke-width:0;stroke-linecap:round;stroke-linejoin:round;stroke-dashoffset:311.437;stroke-opacity:1;paint-order:stroke fill markers"
       id="rect18"
       width="43.09314"
       height="95.118439"
       x="189.63963"
       y="197.56435"
       rx="18.824892"
       ry="34.045124"
       transform="rotate(5.5791454)" />
    <rect
       style="fill:#f23a08;fill-opacity:1;stroke:#d46907;stroke-width:0;stroke-linecap:round;stroke-linejoin:round;stroke-dashoffset:311.437;stroke-opacity:1;paint-order:stroke fill markers"
       id="rect19"
       width="43.09314"
       height="95.118439"
       x="135.53816"
       y="215.33585"
       rx="18.824892"
       ry="34.045124"
       transform="rotate(-0.57266819)" />
    <rect
       style="fill:#d13206;fill-opacity:1;stroke:#d46907;stroke-width:0;stroke-linecap:round;stroke-linejoin:round;stroke-dashoffset:311.437;stroke-opacity:1;paint-order:stroke fill markers"
       id="rect20"
       width="44.277802"
       height="69.678391"
       x="144.05649"
       y="254.33565"
       rx="19.342402"
       ry="24.939533"
       transform="matrix(0.99997461,-0.00712537,0.01401937,0.99990172,0,0)" />
    <rect
       style="fill:#d43207;fill-opacity:1;stroke:#d46907;stroke-width:0;stroke-linecap:round;stroke-linejoin:round;stroke-dashoffset:311.437;stroke-opacity:1;paint-order:stroke fill markers"
       id="rect21"
       width="31.630299"
       height="54.569733"
       x="129.20207"
       y="266.20963"
       rx="13.817442"
       ry="19.53179"
       transform="matrix(0.99996949,-0.0078118,0.01278762,0.99991824,0,0)" />
    <rect
       style="fill:#c02e06;fill-opacity:1;stroke:#d46907;stroke-width:0;stroke-linecap:round;stroke-linejoin:round;stroke-dashoffset:311.437;stroke-opacity:1;paint-order:stroke fill markers"
       id="rect22"
       width="31.630299"
       height="54.569733"
       x="139.7477"
       y="281.40833"
       rx="13.817442"
       ry="19.53179"
       transform="matrix(0.99996949,-0.0078118,0.01278762,0.99991824,0,0)" />
    <rect
       style="fill:#bc2d06;fill-opacity:1;stroke:#d46907;stroke-width:0;stroke-linecap:round;stroke-linejoin:round;stroke-dashoffset:311.437;stroke-opacity:1;paint-order:stroke fill markers"
       id="rect23"
       width="31.630299"
       height="54.569733"
       x="129.57027"
       y="299.6275"
       rx="13.817442"
       ry="19.53179"
       transform="matrix(0.99996949,-0.0078118,0.01278762,0.99991824,0,0)" />
    <rect
       style="fill:#f8b91d;fill-opacity:1;stroke:#d46907;stroke-width:0;stroke-linecap:round;stroke-linejoin:round;stroke-dashoffset:311.437;stroke-opacity:1;paint-order:stroke fill markers"
       id="rect16"
       width="38.372017"
       height="87.079155"
       x="180.69226"
       y="195.63924"
       rx="16.762508"
       ry="31.167679"
       transform="matrix(0.99498942,0.09998029,-0.09453578,0.99552146,0,0)" />
    <rect
       style="fill:#dab807;fill-opacity:1;stroke:#d46907;stroke-width:0;stroke-linecap:round;stroke-linejoin:round;stroke-dashoffset:311.437;stroke-opacity:1;paint-order:stroke fill markers"
       id="rect13"
       width="31.4897"
       height="92.410606"
       x="149.32561"
       y="214.84949"
       rx="13.756024"
       ry="33.075924" />
    <rect
       style="fill:#f4c509;fill-opacity:1;stroke:#d46907;stroke-width:0;stroke-linecap:round;stroke-linejoin:round;stroke-dashoffset:311.437;stroke-opacity:1;paint-order:stroke fill markers"
       id="rect15"
       width="35.073017"
       height="69.433304"
       x="151.524"
       y="214.713"
       rx="15.321366"
       ry="24.851809" />
    <rect
       style="fill:#fbf471;fill-opacity:1;stroke:#d46907;stroke-width:0;stroke-linecap:round;stroke-linejoin:round;stroke-dashoffset:311.437;stroke-opacity:1;paint-order:stroke fill markers"
       id="rect14"
       width="25.876158"
       height="44.720745"
       x="154.47311"
       y="214.51997"
       rx="11.303791"
       ry="16.006605" />
    <rect
       style="fill:#ffffff;fill-opacity:1;stroke:#ffffff;stroke-width:0;stroke-linecap:round;stroke-linejoin:round;stroke-dashoffset:311.437;stroke-opacity:1;paint-order:stroke fill markers"
       id="rect17"
       width="12.09429"
       height="21.09469"
       x="158.4108"
       y="218.17639"
       rx="5.2832932"
       ry="7.5502853" />
  </g>
</svg>
